<svg width="150" height="2546" viewBox="0 0 150 2546" fill="none" xmlns="http://www.w3.org/2000/svg">
<line x1="118.5" y1="-1.5299e-07" x2="118.5" y2="2546" stroke="#FFFCE1" stroke-width="7"/>
<path d="M32.5309 1515.56L115.123 1481.64L115.123 1499.46L85.3799 1511.63L85.38 1539.41L115.123 1553.91L115.123 1556.37L32.5309 1515.56ZM83.1677 1538.3L83.1677 1512.49L54.4079 1524.29L83.1677 1538.3ZM115.615 1436.11C115.615 1441.76 114.345 1446.84 111.804 1451.35C109.183 1455.86 105.413 1459.42 100.497 1462.04C95.581 1464.67 89.6406 1465.98 82.676 1465.98C75.6295 1465.98 69.6891 1464.67 64.8549 1462.04C59.9387 1459.34 56.2105 1455.73 53.6705 1451.23C51.1305 1446.72 49.8605 1441.68 49.8605 1436.11C49.8605 1429.97 51.2534 1424.48 54.0392 1419.64C56.7431 1414.72 60.5532 1410.87 65.4694 1408.09C70.3856 1405.3 76.1211 1403.91 82.676 1403.91C89.149 1403.91 94.8846 1405.3 99.8827 1408.09C104.799 1410.87 108.65 1414.72 111.436 1419.64C114.222 1424.48 115.615 1429.96 115.615 1436.11ZM115 1469.42L23.8047 1469.42L23.8047 1460.69L69.5252 1460.69L82.5531 1461.92L95.581 1461.06L115 1461.06L115 1469.42ZM107.872 1436.72C107.872 1432.14 106.847 1428.04 104.799 1424.43C102.669 1420.83 99.7188 1417.96 95.9498 1415.83C92.0987 1413.7 87.6742 1412.64 82.676 1412.64C77.596 1412.64 73.1714 1413.7 69.4023 1415.83C65.6332 1417.96 62.7245 1420.83 60.6761 1424.43C58.5457 1428.04 57.4806 1432.14 57.4806 1436.72C57.4806 1441.31 58.5457 1445.45 60.6761 1449.14C62.7245 1452.74 65.6332 1455.61 69.4023 1457.74C73.1714 1459.79 77.596 1460.81 82.676 1460.81C87.6742 1460.81 92.0987 1459.79 95.9498 1457.74C99.7188 1455.61 102.669 1452.74 104.799 1449.14C106.847 1445.45 107.872 1441.31 107.872 1436.72ZM115.615 1359.82C115.615 1366.05 114.222 1371.66 111.436 1376.66C108.568 1381.57 104.676 1385.47 99.7598 1388.33C94.7617 1391.2 89.0671 1392.63 82.676 1392.63C76.2031 1392.63 70.5085 1391.2 65.5923 1388.33C60.6761 1385.47 56.8251 1381.57 54.0392 1376.66C51.2534 1371.74 49.8605 1366.13 49.8605 1359.82C49.8605 1353.43 51.2534 1347.77 54.0392 1342.86C56.8251 1337.86 60.6761 1333.97 65.5923 1331.18C70.5085 1328.31 76.2031 1326.88 82.676 1326.88C89.0671 1326.88 94.7617 1328.31 99.7598 1331.18C104.676 1333.97 108.568 1337.86 111.436 1342.86C114.222 1347.86 115.615 1353.51 115.615 1359.82ZM107.872 1359.82C107.872 1355.15 106.847 1351.01 104.799 1347.41C102.669 1343.8 99.7188 1340.97 95.9498 1338.93C92.0987 1336.79 87.6742 1335.73 82.676 1335.73C77.596 1335.73 73.1714 1336.79 69.4023 1338.93C65.6332 1340.97 62.7245 1343.8 60.6761 1347.41C58.5457 1351.01 57.4806 1355.11 57.4806 1359.7C57.4806 1364.28 58.5457 1368.38 60.6761 1371.99C62.7245 1375.59 65.6332 1378.46 69.4023 1380.59C73.1714 1382.72 77.596 1383.79 82.676 1383.79C87.6742 1383.79 92.0987 1382.72 95.9498 1380.59C99.7188 1378.46 102.669 1375.59 104.799 1371.99C106.847 1368.38 107.872 1364.33 107.872 1359.82ZM115.615 1282.39C115.615 1287.88 114.59 1292.68 112.542 1296.77C110.493 1300.87 107.421 1304.07 103.324 1306.36C99.2272 1308.57 94.1062 1309.68 87.9609 1309.68L50.475 1309.68L50.475 1300.95L86.9777 1300.95C93.8604 1300.95 99.0633 1299.27 102.587 1295.91C106.028 1292.47 107.749 1287.68 107.749 1281.53C107.749 1277.03 106.847 1273.14 105.045 1269.86C103.16 1266.5 100.456 1263.96 96.933 1262.24C93.4097 1260.44 89.19 1259.53 84.2738 1259.53L50.475 1259.53L50.475 1250.81L115 1250.81L115 1259.17L97.3017 1259.17L100.497 1257.81C105.25 1259.86 108.978 1263.06 111.682 1267.4C114.304 1271.66 115.615 1276.66 115.615 1282.39ZM115.615 1206.09C115.615 1212.15 113.976 1216.82 110.698 1220.1C107.421 1223.37 102.791 1225.01 96.8101 1225.01L36.218 1225.01L36.218 1216.29L96.3185 1216.29C100.088 1216.29 102.996 1215.35 105.045 1213.46C107.093 1211.49 108.117 1208.71 108.117 1205.1C108.117 1201.25 107.011 1198.06 104.799 1195.52L111.067 1192.44C112.624 1194.16 113.771 1196.25 114.508 1198.71C115.246 1201.09 115.615 1203.55 115.615 1206.09ZM57.7264 1236.57L50.475 1236.57L50.475 1196.62L57.7264 1196.62L57.7264 1236.57ZM32.1622 1083.43L32.1622 1070.65L115.123 1070.65L115.123 1084.05L40.2739 1084.05L90.2961 1104.2L114.385 1114.16L114.385 1116.25L40.0281 1148.2L115.123 1141.32L115.123 1150.41L32.1622 1150.41L32.1622 1138.25L98.4078 1109.86L32.1622 1083.43ZM115.615 1024.81C115.615 1031.52 114.222 1037.42 111.436 1042.5C108.568 1047.58 104.676 1051.56 99.7598 1054.43C94.7617 1057.29 89.0671 1058.73 82.676 1058.73C76.285 1058.73 70.6314 1057.38 65.7152 1054.67C60.799 1051.89 56.948 1048.12 54.1621 1043.36C51.2943 1038.53 49.8604 1033.12 49.8604 1027.14C49.8604 1021.08 51.2534 1015.71 54.0392 1011.04C56.7431 1006.29 60.5941 1002.56 65.5923 999.856C70.5085 997.152 76.203 995.8 82.676 995.8C83.0857 995.8 83.5364 995.841 84.028 995.923C84.4377 995.923 84.8883 995.923 85.3799 995.923L85.3799 1052.09L78.866 1052.09L78.866 1000.59L81.447 1004.03C76.7766 1004.03 72.6388 1005.06 69.0336 1007.11C65.3464 1009.07 62.4787 1011.78 60.4303 1015.22C58.3818 1018.66 57.3576 1022.63 57.3576 1027.14C57.3576 1031.57 58.3818 1035.54 60.4303 1039.06C62.4787 1042.59 65.3465 1045.33 69.0336 1047.3C72.7207 1049.26 76.9405 1050.25 81.6928 1050.25L83.0447 1050.25C87.9609 1050.25 92.3036 1049.18 96.0726 1047.05C99.7598 1044.84 102.669 1041.81 104.799 1037.96C106.847 1034.02 107.872 1029.56 107.872 1024.56C107.872 1020.63 107.175 1016.98 105.782 1013.62C104.389 1010.18 102.259 1007.23 99.3911 1004.77L105.045 999.856C108.486 1002.72 111.108 1006.33 112.911 1010.67C114.713 1014.93 115.615 1019.64 115.615 1024.81Z" fill="#FFFCE1"/>
</svg>
