<svg width="751" height="743" viewBox="0 0 751 743" fill="none" xmlns="http://www.w3.org/2000/svg">
<path d="M171.145 522.763C177.825 532.06 185.3 540.989 193.648 549.337C201.997 557.686 210.937 565.172 220.222 571.84C170.302 591.138 123.406 620.594 82.8221 660.299L82.6756 660.152C122.38 619.569 151.825 572.684 171.134 522.752L171.145 522.763Z" fill="#262622" fill-opacity="0.6"/>
<path d="M348.99 491.894C330.397 478.534 312.539 463.584 295.831 446.876C279.123 430.168 264.173 412.31 250.813 393.717C296.936 274.903 314.416 147.372 303.326 21.6862C281.989 21.7296 260.712 22.817 239.668 26.2399C261.518 168.791 246.165 315.736 193.528 451.295C206.887 469.888 221.838 487.746 238.546 504.454C255.254 521.162 273.112 536.113 291.704 549.472C427.252 496.846 574.198 481.493 716.76 503.332C720.183 482.198 721.27 460.832 721.313 439.405C595.537 428.269 467.894 445.726 349.001 491.882L348.99 491.894Z" fill="#262622" fill-opacity="0.6"/>
</svg>
