<svg width="54" height="54" viewBox="0 0 54 54" fill="none" xmlns="http://www.w3.org/2000/svg">
<path d="M28.9126 17.818C28.3384 17.7317 27.7488 17.6837 27.1487 17.6837C26.5486 17.6837 25.9582 17.7317 25.3848 17.818C26.4854 15.5336 27.1122 13.0136 27.1438 10.3638H27.1544C27.1859 13.0136 27.8128 15.5328 28.9134 17.818H28.9126Z" fill="black"/>
<path d="M23.6295 24.7071C24.7779 24.5344 25.9571 24.4384 27.1582 24.4384C28.3592 24.4384 29.5384 24.5344 30.6868 24.7071C33.2995 30.1508 37.255 34.9367 42.1709 38.7189C42.9363 38.0132 43.6619 37.2751 44.2953 36.4676C38.3864 32.484 33.6566 27.1274 30.6763 20.9161C29.5279 20.7434 28.3487 20.6475 27.1476 20.6475C25.9466 20.6475 24.7674 20.7434 23.619 20.9161C20.6386 27.1267 15.9089 32.4832 10 36.4676C10.6366 37.278 11.3655 38.0191 12.134 38.7277C17.0549 34.9441 21.0152 30.1552 23.6295 24.7079V24.7071Z" fill="black"/>
<circle cx="27" cy="27" r="25.5" stroke="black" stroke-width="3"/>
</svg>
