<svg width="375" height="485" viewBox="0 0 375 485" fill="none" xmlns="http://www.w3.org/2000/svg">
<path d="M67.4447 362.89L75.4817 350.67L80.5421 344.746C81.3305 343.823 81.1215 342.416 80.0988 341.762L64.3466 331.689C63.3957 331.081 62.1304 331.38 61.5519 332.349L46.7673 357.116C46.6908 357.244 46.6003 357.363 46.4974 357.471L39.7395 364.558C38.3061 366.061 39.8306 368.483 41.8057 367.84L42.8744 367.493C44.5793 366.938 46.0966 368.734 45.265 370.322L44.1821 372.391C43.1453 374.371 45.644 376.302 47.2986 374.799L51.4648 371.015C52.7191 369.875 54.7331 370.714 54.8076 372.407L54.9604 375.881C55.0591 378.124 58.211 378.527 58.8703 376.38L59.7323 373.574C60.1982 372.057 62.1604 371.661 63.1784 372.878L65.3903 375.523C66.7084 377.099 69.2617 375.902 68.8919 373.88L67.1483 364.349C67.0557 363.842 67.1619 363.32 67.4447 362.89Z" fill="#F6CD85" stroke="black" stroke-width="3" stroke-linecap="round"/>
<path d="M118.614 275.378C108.942 272.223 96.5892 281.372 91.516 286.436C91.4473 286.505 91.3868 286.576 91.3291 286.654L58.6386 330.886C57.9626 331.8 58.1843 333.094 59.1263 333.731L81.6732 348.983C82.5742 349.593 83.7972 349.37 84.4259 348.482L117.461 301.838C121.902 294.341 128.351 278.555 118.614 275.378Z" fill="#FF4300" stroke="black" stroke-width="4" stroke-linecap="round"/>
<rect x="112.287" y="307.986" width="28.8367" height="4.94297" transform="rotate(-145.124 112.287 307.986)" fill="white"/>
<path d="M318.393 226.167L308.952 236.923L303.275 241.955C302.367 242.76 302.379 244.182 303.302 244.971L317.154 256.819C318.012 257.552 319.306 257.431 320.013 256.551L337.681 234.559C337.774 234.443 337.88 234.337 337.997 234.245L345.383 228.387C347.01 227.096 345.835 224.487 343.79 224.85L342.964 224.997C341.198 225.311 339.944 223.323 340.987 221.865L342.126 220.273C343.426 218.455 341.218 216.197 339.372 217.457L335.079 220.386C333.679 221.341 331.801 220.232 331.961 218.545L332.252 215.476C332.464 213.24 329.398 212.406 328.449 214.441L327.364 216.765C326.693 218.203 324.695 218.324 323.855 216.978L322.189 214.307C321.101 212.564 318.407 213.397 318.494 215.45L318.888 224.763C318.91 225.278 318.732 225.78 318.393 226.167Z" fill="#F6CD85" stroke="black" stroke-width="3" stroke-linecap="round"/>
<path d="M256.912 304.135C265.868 308.505 279.088 301.303 284.697 297.076C284.775 297.017 284.845 296.955 284.913 296.886L322.585 258.429C323.381 257.617 323.34 256.305 322.495 255.544L302.745 237.749C301.937 237.02 300.695 237.072 299.95 237.864L261.612 278.62C256.288 285.291 247.895 299.735 256.912 304.135Z" fill="#FF4300" stroke="black" stroke-width="4" stroke-linecap="round"/>
<rect x="267.464" y="273.354" width="28.2491" height="4.84223" transform="rotate(42.818 267.464 273.354)" fill="white"/>
<ellipse cx="186.365" cy="464.21" rx="97.5023" ry="20.3644" fill="#8E8E8E" fill-opacity="0.58"/>
<path d="M152.618 435.957L121.521 454.037C120.51 454.625 119.755 455.581 119.413 456.705L117.949 461.528C116.917 464.925 119.935 468.078 123.32 467.138L159.142 457.19C161.536 456.525 162.986 454.032 162.379 451.622L159.119 438.667C158.399 435.805 155.184 434.465 152.618 435.957Z" fill="#FFE55F" stroke="black" stroke-width="3"/>
<path d="M118.132 436.184V333.711L178.881 346.659C178.812 347.381 178.716 348.382 178.596 349.626C178.332 352.365 177.954 356.283 177.497 361.001C176.583 370.435 175.352 383.065 174.087 395.847C172.822 408.629 171.522 421.56 170.468 431.598C169.942 436.618 169.477 440.911 169.109 444.098C168.74 447.302 168.48 449.273 168.362 449.808C168.362 449.808 168.362 449.808 168.362 449.808C168.357 449.805 168.231 450.055 167.473 450.425C166.684 450.81 165.518 451.17 164.021 451.476C161.042 452.083 157.046 452.414 152.848 452.434C148.657 452.454 144.333 452.164 140.709 451.558C138.897 451.255 137.288 450.878 135.971 450.433C134.631 449.98 133.699 449.493 133.151 449.024L125.379 442.38L118.132 436.184Z" fill="#5585FF" stroke="black" stroke-width="3"/>
<path d="M118.132 391.913V333.214L184.605 340.794C184.555 341.073 184.499 341.386 184.437 341.73C184.149 343.33 183.737 345.619 183.238 348.374C182.24 353.884 180.897 361.26 179.515 368.724C178.134 376.189 176.716 383.739 175.567 389.597C174.992 392.527 174.486 395.027 174.087 396.88C173.887 397.807 173.715 398.563 173.577 399.126C173.508 399.408 173.449 399.632 173.4 399.8C173.398 399.808 173.396 399.815 173.394 399.821C173.21 399.908 172.913 400.014 172.478 400.127C171.544 400.371 170.203 400.59 168.535 400.772C165.213 401.135 160.793 401.329 156.176 401.341C151.564 401.353 146.795 401.182 142.783 400.823C140.776 400.644 138.976 400.419 137.489 400.15C135.975 399.876 134.88 399.574 134.227 399.275L125.741 395.394L118.132 391.913ZM173.55 399.735C173.551 399.735 173.545 399.74 173.53 399.749C173.542 399.739 173.549 399.735 173.55 399.735Z" fill="black" fill-opacity="0.75" stroke="black" stroke-width="3"/>
<path d="M219.894 437.667L251.594 454.524C252.626 455.073 253.415 455.999 253.795 457.109L255.433 461.884C256.582 465.237 253.676 468.498 250.259 467.689L214.117 459.138C211.699 458.566 210.161 456.132 210.682 453.702L213.486 440.621C214.105 437.735 217.275 436.274 219.894 437.667Z" fill="#FFE55F" stroke="black" stroke-width="3"/>
<path d="M255.523 436.185V339.536L194.782 352.174C194.849 352.83 194.938 353.714 195.049 354.799C195.306 357.329 195.676 360.953 196.123 365.323C197.018 374.064 198.226 385.792 199.476 397.743C201.983 421.709 204.645 446.401 205.309 449.884C205.374 450.226 205.635 450.67 206.403 451.162C207.173 451.654 208.308 452.094 209.784 452.444C212.725 453.141 216.674 453.405 220.848 453.286C225.008 453.167 229.304 452.67 232.911 451.891C234.714 451.502 236.321 451.047 237.641 450.545C238.982 450.036 239.935 449.512 240.504 449.025L248.276 442.38L255.523 436.185Z" fill="#5585FF" stroke="black" stroke-width="3"/>
<path d="M256.715 337.367L186.365 344.797C186.365 344.797 196.633 396.257 198.131 400.243C199.629 404.229 232.907 403.144 239.593 400.243C246.28 397.342 250.028 395.715 256.715 392.814V337.367Z" fill="black" fill-opacity="0.75"/>
<path d="M125.438 239.233H247.908C259.782 239.233 269.408 248.859 269.408 260.733V357.942C269.408 366.296 264.595 373.837 256.919 376.928C239.67 383.876 209.476 394.52 186.673 394.52C163.87 394.52 133.676 383.876 116.427 376.928C108.751 373.837 103.938 366.296 103.938 357.942V260.733C103.938 248.859 113.564 239.233 125.438 239.233Z" fill="#FF4300" stroke="black" stroke-width="3"/>
<path d="M102.438 260.733C102.438 248.031 112.736 237.733 125.438 237.733H247.908C260.61 237.733 270.908 248.031 270.908 260.733V286.216C270.908 296.918 263.528 306.196 253.019 308.214C235.334 311.611 207.918 316.105 186.673 316.105C165.428 316.105 138.012 311.611 120.327 308.214C109.818 306.196 102.438 296.918 102.438 286.216V260.733Z" fill="black" fill-opacity="0.63"/>
<path d="M95.6504 194.32V212.485C95.6504 214.205 94.8838 215.831 93.5589 216.929L90.7074 219.292C88.0751 221.474 84.092 219.601 84.092 216.183C84.092 215.534 83.9351 214.899 83.6456 214.318C79.3656 205.738 72.354 186.856 75.4232 173.195C78.0902 161.325 86.7074 172.141 92.6127 182.313C94.7219 185.947 95.6504 190.119 95.6504 194.32Z" fill="#F6CD85" stroke="black" stroke-width="3"/>
<path d="M82.3824 181.577C82.7354 184.663 80.5309 193.611 82.7359 201.428C85.2437 210.318 88.5532 210.89 89.7874 211.815" stroke="#967C4F" stroke-width="3" stroke-linecap="round"/>
<path d="M82.3827 181.577C80.9428 184.457 78.9269 192.562 82.3827 201.942C85.8385 211.322 88.7593 212.433 89.7878 211.815" stroke="black" stroke-width="3" stroke-linecap="round"/>
<path d="M91.3304 192.994C89.2734 194.228 86.3935 197.622 91.3304 201.325" stroke="black" stroke-width="3" stroke-linecap="round"/>
<path d="M278.931 194.32V212.484C278.931 214.205 279.697 215.831 281.022 216.929L283.874 219.292C286.506 221.473 290.489 219.601 290.489 216.182C290.489 215.534 290.646 214.898 290.935 214.318C295.215 205.738 302.227 186.856 299.158 173.195C296.491 161.324 287.874 172.14 281.968 182.313C279.859 185.947 278.931 190.118 278.931 194.32Z" fill="#F6CD85" stroke="black" stroke-width="3"/>
<path d="M292.198 181.577C291.845 184.663 294.049 193.611 291.844 201.427C289.336 210.317 286.027 210.89 284.793 211.815" stroke="#967C4F" stroke-width="3" stroke-linecap="round"/>
<path d="M292.198 181.577C293.638 184.457 295.654 192.562 292.198 201.942C288.743 211.322 285.822 212.432 284.793 211.815" stroke="black" stroke-width="3" stroke-linecap="round"/>
<path d="M283.251 192.993C285.308 194.228 288.188 197.622 283.251 201.324" stroke="black" stroke-width="3" stroke-linecap="round"/>
<path d="M95.6504 221.837C95.6505 186.366 95.6506 139.261 95.6504 133.118C95.6501 123.963 110.468 128.26 110.468 120.973V96.6837C110.468 91.2652 125.286 81.1758 130.528 81.1756C135.77 81.1754 169.966 81.1757 173.84 81.1756C175.511 81.1756 177.897 83.0916 180.146 85.296C184.318 89.3856 188.631 89.5949 193.034 85.7558C195.871 83.2823 198.929 80.9893 200.74 80.9893C204.615 80.9894 238.81 80.9891 244.052 80.9893C249.294 80.9895 264.113 91.0789 264.113 96.4974V120.787C264.113 128.074 278.93 123.777 278.93 132.932C278.93 138.797 278.93 182.012 278.93 216.782V221.65L278.93 259.239C278.93 276.241 260.886 286.13 244.052 293.805C227.78 301.223 198.33 302.795 195.103 302.947C194.9 302.957 194.712 302.96 194.509 302.96L187.29 303.146H180.072C179.869 303.146 179.681 303.143 179.478 303.133C176.25 302.981 146.8 301.41 130.528 293.991C113.694 286.316 95.6504 276.428 95.6504 259.425L95.6504 221.837Z" fill="#F6CD85" stroke="#442B00" stroke-width="5"/>
<path d="M274.946 138.38H103.072C102.409 138.38 101.75 138.266 101.126 138.043C99.0407 137.3 97.5236 135.441 97.5035 133.228C97.3139 112.362 114.53 76.8232 187.218 77.2912C260.957 77.7659 280.453 112.534 281.365 132.106C281.441 133.753 280.729 135.306 279.562 136.471C278.337 137.693 276.677 138.38 274.946 138.38Z" fill="#967C4F" stroke="#967C4F" stroke-width="3"/>
<path d="M281.974 185.569C295.809 171.642 307.904 129.667 314.479 100.51C316.532 91.4054 311.05 82.418 302.121 79.7049C291.478 76.4714 280.431 83.3827 278.938 94.4053C272.795 139.78 267.647 199.991 281.974 185.569Z" fill="black" stroke="#595959" stroke-width="3"/>
<path d="M91.374 185.569C77.5386 171.642 65.4435 129.667 58.8685 100.51C56.8155 91.4054 62.2972 82.418 71.227 79.7049C81.8698 76.4714 92.9169 83.3827 94.4092 94.4053C100.552 139.78 105.701 199.991 91.374 185.569Z" fill="black" stroke="#595959" stroke-width="3"/>
<path d="M79.3346 114.472C77.4189 110.41 73.6848 101.801 73.0601 95.2107C72.2134 86.2774 70.4442 69.6599 77.1526 46.2631L77.2141 46.0485C80.5314 34.4759 85.8364 15.9688 111.256 9.21257C134.853 2.94088 239.926 -1.13438 259.434 5.11894C278.942 11.3723 293.36 21.1984 299.297 42.6384C303.717 58.5978 295.261 93.8411 289.508 112.818C288.782 115.215 289.648 117.764 291.215 119.718C294.709 124.071 296.822 130.809 288.271 136.438C277.414 143.585 244.731 129.292 229.746 121.252C234.27 126.314 240.603 136.438 229.746 136.438C218.89 136.438 195.819 126.314 185.641 121.252C192.426 126.314 201.926 136.438 185.641 136.438C169.356 136.438 134.185 123.336 118.635 116.785C122.144 124.917 114.898 133.578 106.274 131.56L94.6562 128.841C90.9604 127.976 87.6665 125.884 85.3113 122.908L82.0688 118.81C81.0032 117.463 80.0671 116.025 79.3346 114.472Z" fill="black" stroke="#595959" stroke-width="3"/>
<path d="M125.833 94.5435C123.858 110.588 98.2688 84.567 85.721 69.5508C78.5202 60.9332 85.3508 44.9901 93.7434 38.0786C102.136 31.167 122.315 38.0786 148.974 35.6102C182.298 32.5247 252.586 30.4265 267.149 46.718C285.354 67.0824 293.993 86.8297 277.949 94.5435C266.376 100.107 240.389 86.5251 225.362 76.8635C232.08 82.0444 237.377 89.8983 223.644 94.5435C207.94 99.8549 183.631 86.8565 171.383 78.3372C173.755 80.7483 176.513 85.7284 177.052 94.5435C177.774 106.333 142.985 86.8332 124.177 74.7913C125.811 76.7617 127.348 82.23 125.833 94.5435Z" fill="#343434"/>
<path d="M191.012 268.588C216.677 268.588 236.059 252.146 244.763 241.312C245.844 239.967 244.696 238.104 242.984 238.327C233.016 239.624 208.292 242.605 191.012 242.67C173.029 242.738 147.323 239.709 136.813 238.363C135.05 238.137 133.919 240.104 135.101 241.432C144.751 252.267 165.441 268.588 191.012 268.588Z" fill="white" stroke="black" stroke-width="3"/>
<path d="M151.966 249.849C151.966 249.849 176.145 253.373 191.714 253.04C207.283 252.707 231.289 248.152 231.289 248.152" stroke="black" stroke-linecap="round"/>
<path d="M189.662 328.107C188.738 327.968 187.789 327.891 186.822 327.891C185.856 327.891 184.906 327.968 183.982 328.107C185.754 324.429 186.764 320.372 186.815 316.105H186.831C186.882 320.372 187.892 324.428 189.664 328.107H189.662Z" fill="white"/>
<path d="M181.156 339.198C183.005 338.92 184.904 338.766 186.838 338.766C188.771 338.766 190.67 338.92 192.519 339.198C196.725 347.962 203.094 355.668 211.008 361.757C212.24 360.621 213.409 359.433 214.428 358.133C204.915 351.719 197.3 343.095 192.502 333.095C190.653 332.817 188.754 332.662 186.821 332.662C184.887 332.662 182.988 332.817 181.14 333.095C176.341 343.094 168.726 351.718 159.213 358.133C160.238 359.437 161.411 360.631 162.649 361.771C170.571 355.68 176.947 347.97 181.156 339.199V339.198Z" fill="white"/>
</svg>
