<svg width="1308" height="662" viewBox="0 0 1308 662" fill="none" xmlns="http://www.w3.org/2000/svg">
<path d="M118.515 370.477C125.858 398.152 116.821 427.521 103.831 442.206C80.1097 468.186 32.6674 484 -6.8679 484H-7.4327C-8.56228 484.565 -9.12707 484.565 -10.2566 484.565C-101.753 487.389 -157.102 410.013 -159.361 406.624L-136.77 357.487C-136.205 358.052 -95.5399 477.223 -9.12707 473.834C16.8533 472.704 41.1392 469.88 52.9998 453.501C63.166 439.946 65.99 422.438 60.9069 406.059C54.1294 379.514 38.3153 364.265 -17.0341 336.025C-43.0145 322.47 -75.2075 306.091 -97.7991 288.018C-133.381 259.778 -140.723 227.585 -136.205 194.263C-129.427 148.515 -75.2075 99.9429 -16.4693 98.8133H-15.9045C77.2858 93.7302 116.821 155.292 119.08 158.681L96.4886 206.688C95.9238 206.123 73.897 107.285 -13.6454 111.239C-42.4497 112.933 -61.0877 122.535 -72.3835 144.561C-85.3737 170.542 -81.985 203.864 -51.4863 230.974C-32.8482 246.788 -9.69186 258.084 17.9828 274.463C72.7675 306.656 110.608 340.543 118.515 370.477ZM461.405 446.159L467.617 454.631C439.378 471.575 415.657 484.565 393.065 484.565C376.686 484.565 359.742 480.611 345.623 471.575C319.078 454.631 312.3 422.438 312.865 378.384C313.43 334.331 312.865 301.008 295.356 285.194C281.237 272.204 259.21 273.898 246.22 287.453L224.758 311.174V484.565H163.76V102.767H224.758V295.925L360.307 102.767H410.574L272.765 258.084C285.755 251.871 299.875 248.483 313.994 249.047C333.762 250.177 351.835 259.778 363.131 276.157C373.297 289.712 374.992 320.776 373.862 364.265C373.297 402.67 385.158 440.511 412.833 451.807C437.683 461.973 461.405 446.159 461.405 446.159ZM554.035 484H493.037V103.332H554.035V484ZM672.632 474.399L849.411 445.03L843.763 484.565H611.069V103.332H672.632V474.399ZM937.377 474.399L1114.16 445.03L1108.51 484.565H875.815V103.332H937.377V474.399ZM1398.67 370.477C1406.01 398.152 1396.97 427.521 1383.98 442.206C1360.26 468.186 1312.82 484 1273.29 484H1272.72C1271.59 484.565 1271.03 484.565 1269.9 484.565C1178.4 487.389 1123.05 410.013 1120.79 406.624L1143.38 357.487C1143.95 358.052 1184.61 477.223 1271.03 473.834C1297.01 472.704 1321.29 469.88 1333.15 453.501C1343.32 439.946 1346.14 422.438 1341.06 406.059C1334.28 379.514 1318.47 364.265 1263.12 336.025C1237.14 322.47 1204.95 306.091 1182.35 288.018C1146.77 259.778 1139.43 227.585 1143.95 194.263C1150.73 148.515 1204.95 99.9429 1263.68 98.8133H1264.25C1357.44 93.7302 1396.97 155.292 1399.23 158.681L1376.64 206.688C1376.08 206.123 1354.05 107.285 1266.51 111.239C1237.7 112.933 1219.07 122.535 1207.77 144.561C1194.78 170.542 1198.17 203.864 1228.67 230.974C1247.31 246.788 1270.46 258.084 1298.14 274.463C1352.92 306.656 1390.76 340.543 1398.67 370.477Z" fill="black" fill-opacity="0.15"/>
</svg>
