<svg width="400" height="76" viewBox="0 0 400 76" fill="none" xmlns="http://www.w3.org/2000/svg">
<rect x="35.9712" y="13.0264" width="362.744" height="51.3822" transform="rotate(-0.274103 35.9712 13.0264)" fill="#C5EB3C"/>
<path d="M51.9983 32.72H71.3423V43.26H51.9983V32.72ZM52.9903 48.964H74.6903V60H38.6063V16.6H73.8843V27.636H52.9903V48.964ZM75.9903 60L95.3343 32.968L95.2723 43.198L76.5483 16.6H92.9783L103.89 32.72L96.8843 32.782L107.548 16.6H123.296L104.572 42.64V32.472L124.226 60H107.486L96.5743 43.136L103.332 43.074L92.6683 60H75.9903ZM125.975 60V16.6H146.869C150.92 16.6 154.413 17.2613 157.347 18.584C160.323 19.9067 162.617 21.808 164.229 24.288C165.841 26.7267 166.647 29.62 166.647 32.968C166.647 36.316 165.841 39.2093 164.229 41.648C162.617 44.0867 160.323 45.988 157.347 47.352C154.413 48.6747 150.92 49.336 146.869 49.336H134.097L140.607 43.074V60H125.975ZM140.607 44.686L134.097 38.052H145.939C147.965 38.052 149.453 37.5973 150.403 36.688C151.395 35.7787 151.891 34.5387 151.891 32.968C151.891 31.3973 151.395 30.1573 150.403 29.248C149.453 28.3387 147.965 27.884 145.939 27.884H134.097L140.607 21.25V44.686ZM184.838 32.72H204.182V43.26H184.838V32.72ZM185.83 48.964H207.53V60H171.446V16.6H206.724V27.636H185.83V48.964ZM213.163 60V16.6H234.057C238.108 16.6 241.6 17.2613 244.535 18.584C247.511 19.9067 249.805 21.808 251.417 24.288C253.029 26.7267 253.835 29.62 253.835 32.968C253.835 36.316 253.029 39.2093 251.417 41.648C249.805 44.0453 247.511 45.8847 244.535 47.166C241.6 48.4473 238.108 49.088 234.057 49.088H221.285L227.795 43.074V60H213.163ZM239.141 60L228.477 44.19H243.977L254.765 60H239.141ZM227.795 44.686L221.285 38.052H233.127C235.152 38.052 236.64 37.5973 237.591 36.688C238.583 35.7787 239.079 34.5387 239.079 32.968C239.079 31.3973 238.583 30.1573 237.591 29.248C236.64 28.3387 235.152 27.884 233.127 27.884H221.285L227.795 21.25V44.686ZM268.179 60V27.946H255.469V16.6H295.521V27.946H282.811V60H268.179ZM299.321 60V16.6H313.953V60H299.321ZM337.179 60.992C333.542 60.992 330.028 60.5787 326.639 59.752C323.25 58.9253 320.46 57.8507 318.269 56.528L322.981 45.864C325.048 47.0627 327.342 48.034 329.863 48.778C332.426 49.4807 334.906 49.832 337.303 49.832C338.708 49.832 339.804 49.7493 340.589 49.584C341.416 49.3773 342.015 49.1087 342.387 48.778C342.759 48.406 342.945 47.972 342.945 47.476C342.945 46.6907 342.511 46.0707 341.643 45.616C340.775 45.1613 339.618 44.7893 338.171 44.5C336.766 44.1693 335.216 43.8387 333.521 43.508C331.826 43.136 330.111 42.6607 328.375 42.082C326.68 41.5033 325.11 40.7387 323.663 39.788C322.258 38.8373 321.121 37.5973 320.253 36.068C319.385 34.4973 318.951 32.5547 318.951 30.24C318.951 27.5533 319.695 25.1147 321.183 22.924C322.712 20.692 324.965 18.9147 327.941 17.592C330.958 16.2693 334.699 15.608 339.163 15.608C342.098 15.608 344.991 15.918 347.843 16.538C350.695 17.158 353.258 18.1087 355.531 19.39L351.129 29.992C348.98 28.9173 346.892 28.1113 344.867 27.574C342.883 27.0367 340.94 26.768 339.039 26.768C337.634 26.768 336.518 26.892 335.691 27.14C334.864 27.388 334.265 27.7187 333.893 28.132C333.562 28.5453 333.397 29 333.397 29.496C333.397 30.24 333.831 30.8393 334.699 31.294C335.567 31.7073 336.704 32.0587 338.109 32.348C339.556 32.6373 341.126 32.9473 342.821 33.278C344.557 33.6087 346.272 34.0633 347.967 34.642C349.662 35.2207 351.212 35.9853 352.617 36.936C354.064 37.8867 355.221 39.1267 356.089 40.656C356.957 42.1853 357.391 44.0867 357.391 46.36C357.391 49.0053 356.626 51.444 355.097 53.676C353.609 55.8667 351.377 57.644 348.401 59.008C345.425 60.3307 341.684 60.992 337.179 60.992ZM375.137 32.72H394.481V43.26H375.137V32.72ZM376.129 48.964H397.829V60H361.745V16.6H397.023V27.636H376.129V48.964Z" fill="#2600AF"/>
<path d="M27 59.2009L7.4 59.2009L7.4 53.7689L20.196 45.9289L20.196 48.7849L7.4 41.1689L7.4 35.7369L27 35.6809L27 41.7009L16.472 41.7569L16.472 40.8049L25.236 46.0129L25.236 48.9249L16.472 54.3569L16.472 53.1809L27 53.1809L27 59.2009ZM27 27.446L18.404 27.446L22.352 25.934L7.4 34.838L7.4 27.866L17.62 21.846L17.62 25.906L7.4 19.83L7.4 13.446L22.352 22.294L18.404 20.838L27 20.838L27 27.446Z" fill="black"/>
</svg>
