<svg width="2864" height="150" viewBox="0 0 2864 150" fill="none" xmlns="http://www.w3.org/2000/svg">
<rect y="35" width="2864" height="81" fill="black"/>
<path d="M1110.3 67.004H1151.42V82.376H1110.3V67.004ZM1111.77 102.14H1158.25V118H1092.13V32.6H1156.66V48.46H1111.77V102.14ZM1163.38 118L1200.1 67.37V81.766L1164.97 32.6H1187.42L1211.69 66.882L1202.3 67.004L1226.21 32.6H1247.68L1212.79 80.912V66.76L1249.76 118H1226.94L1201.81 81.766H1210.84L1186.07 118H1163.38ZM1257.49 118V32.6H1294.46C1302.11 32.6 1308.69 33.8607 1314.22 36.382C1319.75 38.822 1324.02 42.36 1327.03 46.996C1330.04 51.632 1331.55 57.1627 1331.55 63.588C1331.55 69.932 1330.04 75.422 1327.03 80.058C1324.02 84.694 1319.75 88.2727 1314.22 90.794C1308.69 93.234 1302.11 94.454 1294.46 94.454H1268.47L1277.26 85.548V118H1257.49ZM1277.26 87.744L1268.47 78.35H1293.36C1299.46 78.35 1304.02 77.0487 1307.03 74.446C1310.04 71.8433 1311.54 68.224 1311.54 63.588C1311.54 58.8707 1310.04 55.2107 1307.03 52.608C1304.02 50.0053 1299.46 48.704 1293.36 48.704H1268.47L1277.26 39.31V87.744ZM1363.84 67.004H1404.95V82.376H1363.84V67.004ZM1365.3 102.14H1411.78V118H1345.66V32.6H1410.2V48.46H1365.3V102.14ZM1427.51 118V32.6H1464.47C1472.12 32.6 1478.71 33.8607 1484.24 36.382C1489.77 38.822 1494.04 42.36 1497.05 46.996C1500.06 51.632 1501.56 57.1627 1501.56 63.588C1501.56 69.932 1500.06 75.422 1497.05 80.058C1494.04 84.6127 1489.77 88.11 1484.24 90.55C1478.71 92.99 1472.12 94.21 1464.47 94.21H1438.49L1447.27 85.548V118H1427.51ZM1481.8 118L1460.45 87.012H1481.55L1503.15 118H1481.8ZM1447.27 87.744L1438.49 78.472H1463.38C1469.48 78.472 1474.03 77.1707 1477.04 74.568C1480.05 71.884 1481.55 68.224 1481.55 63.588C1481.55 58.8707 1480.05 55.2107 1477.04 52.608C1474.03 50.0053 1469.48 48.704 1463.38 48.704H1438.49L1447.27 39.31V87.744ZM1533.72 118V48.704H1506.39V32.6H1580.81V48.704H1553.48V118H1533.72ZM1591.45 118V32.6H1611.21V118H1591.45ZM1659.54 119.464C1652.7 119.464 1646.16 118.569 1639.89 116.78C1633.63 114.909 1628.59 112.51 1624.77 109.582L1631.48 94.698C1635.14 97.3007 1639.45 99.456 1644.41 101.164C1649.45 102.791 1654.53 103.604 1659.66 103.604C1663.56 103.604 1666.69 103.238 1669.05 102.506C1671.49 101.693 1673.28 100.595 1674.42 99.212C1675.56 97.8293 1676.13 96.2433 1676.13 94.454C1676.13 92.1767 1675.23 90.3873 1673.44 89.086C1671.66 87.7033 1669.3 86.6053 1666.37 85.792C1663.44 84.8973 1660.19 84.084 1656.61 83.352C1653.11 82.5387 1649.57 81.5627 1645.99 80.424C1642.5 79.2853 1639.28 77.8213 1636.36 76.032C1633.43 74.2427 1631.03 71.884 1629.16 68.956C1627.37 66.028 1626.47 62.2867 1626.47 57.732C1626.47 52.852 1627.78 48.4193 1630.38 44.434C1633.06 40.3673 1637.05 37.1547 1642.33 34.796C1647.7 32.356 1654.41 31.136 1662.46 31.136C1667.83 31.136 1673.12 31.7867 1678.32 33.088C1683.53 34.308 1688.13 36.1787 1692.11 38.7L1686.01 53.706C1682.03 51.4287 1678.04 49.7613 1674.05 48.704C1670.07 47.5653 1666.17 46.996 1662.34 46.996C1658.52 46.996 1655.39 47.4433 1652.95 48.338C1650.51 49.2327 1648.76 50.412 1647.7 51.876C1646.65 53.2587 1646.12 54.8853 1646.12 56.756C1646.12 58.952 1647.01 60.7413 1648.8 62.124C1650.59 63.4253 1652.95 64.4827 1655.88 65.296C1658.8 66.1093 1662.02 66.9227 1665.51 67.736C1669.09 68.5493 1672.63 69.4847 1676.13 70.542C1679.71 71.5993 1682.96 73.0227 1685.89 74.812C1688.82 76.6013 1691.18 78.96 1692.96 81.888C1694.84 84.816 1695.77 88.5167 1695.77 92.99C1695.77 97.7887 1694.43 102.181 1691.74 106.166C1689.06 110.151 1685.03 113.364 1679.67 115.804C1674.38 118.244 1667.67 119.464 1659.54 119.464ZM1727.45 67.004H1768.57V82.376H1727.45V67.004ZM1728.92 102.14H1775.4V118H1709.28V32.6H1773.81V48.46H1728.92V102.14Z" fill="#FFFCE1"/>
</svg>
