<svg width="361" height="76" viewBox="0 0 361 76" fill="none" xmlns="http://www.w3.org/2000/svg">
<rect x="35.9712" y="14.0264" width="324.448" height="51.3822" transform="rotate(-0.274103 35.9712 14.0264)" fill="#C5EB3C"/>
<path d="M53.8303 60.992C50.1929 60.992 46.6796 60.5787 43.2903 59.752C39.9009 58.9253 37.1109 57.8507 34.9203 56.528L39.6323 45.864C41.6989 47.0627 43.9929 48.034 46.5143 48.778C49.0769 49.4807 51.5569 49.832 53.9543 49.832C55.3596 49.832 56.4549 49.7493 57.2403 49.584C58.0669 49.3773 58.6663 49.1087 59.0383 48.778C59.4103 48.406 59.5963 47.972 59.5963 47.476C59.5963 46.6907 59.1623 46.0707 58.2943 45.616C57.4263 45.1613 56.2689 44.7893 54.8223 44.5C53.4169 44.1693 51.8669 43.8387 50.1723 43.508C48.4776 43.136 46.7623 42.6607 45.0263 42.082C43.3316 41.5033 41.7609 40.7387 40.3143 39.788C38.9089 38.8373 37.7723 37.5973 36.9043 36.068C36.0363 34.4973 35.6023 32.5547 35.6023 30.24C35.6023 27.5533 36.3463 25.1147 37.8343 22.924C39.3636 20.692 41.6163 18.9147 44.5923 17.592C47.6096 16.2693 51.3503 15.608 55.8143 15.608C58.7489 15.608 61.6423 15.918 64.4943 16.538C67.3463 17.158 69.9089 18.1087 72.1823 19.39L67.7803 29.992C65.6309 28.9173 63.5436 28.1113 61.5183 27.574C59.5343 27.0367 57.5916 26.768 55.6903 26.768C54.2849 26.768 53.1689 26.892 52.3423 27.14C51.5156 27.388 50.9163 27.7187 50.5443 28.132C50.2136 28.5453 50.0483 29 50.0483 29.496C50.0483 30.24 50.4823 30.8393 51.3503 31.294C52.2183 31.7073 53.3549 32.0587 54.7603 32.348C56.2069 32.6373 57.7776 32.9473 59.4723 33.278C61.2083 33.6087 62.9236 34.0633 64.6183 34.642C66.3129 35.2207 67.8629 35.9853 69.2683 36.936C70.7149 37.8867 71.8723 39.1267 72.7403 40.656C73.6083 42.1853 74.0423 44.0867 74.0423 46.36C74.0423 49.0053 73.2776 51.444 71.7483 53.676C70.2603 55.8667 68.0283 57.644 65.0523 59.008C62.0763 60.3307 58.3356 60.992 53.8303 60.992ZM91.7883 32.72H111.132V43.26H91.7883V32.72ZM92.7803 48.964H114.48V60H78.3963V16.6H113.674V27.636H92.7803V48.964ZM120.113 60V16.6H141.007C145.058 16.6 148.55 17.2613 151.485 18.584C154.461 19.9067 156.755 21.808 158.367 24.288C159.979 26.7267 160.785 29.62 160.785 32.968C160.785 36.316 159.979 39.2093 158.367 41.648C156.755 44.0453 154.461 45.8847 151.485 47.166C148.55 48.4473 145.058 49.088 141.007 49.088H128.235L134.745 43.074V60H120.113ZM146.091 60L135.427 44.19H150.927L161.715 60H146.091ZM134.745 44.686L128.235 38.052H140.077C142.102 38.052 143.59 37.5973 144.541 36.688C145.533 35.7787 146.029 34.5387 146.029 32.968C146.029 31.3973 145.533 30.1573 144.541 29.248C143.59 28.3387 142.102 27.884 140.077 27.884H128.235L134.745 21.25V44.686ZM179.95 60L161.598 16.6H177.346L192.288 53.242H182.926L198.302 16.6H212.686L194.334 60H179.95ZM214.142 60V16.6H228.774V60H214.142ZM258.262 60.992C254.79 60.992 251.566 60.4547 248.59 59.38C245.656 58.264 243.093 56.6933 240.902 54.668C238.753 52.6427 237.079 50.2453 235.88 47.476C234.682 44.7067 234.082 41.648 234.082 38.3C234.082 34.952 234.682 31.8933 235.88 29.124C237.079 26.3547 238.753 23.9573 240.902 21.932C243.093 19.9067 245.656 18.3567 248.59 17.282C251.566 16.166 254.79 15.608 258.262 15.608C262.52 15.608 266.281 16.352 269.546 17.84C272.853 19.328 275.581 21.4773 277.73 24.288L268.492 32.534C267.211 30.922 265.785 29.682 264.214 28.814C262.685 27.9047 260.949 27.45 259.006 27.45C257.477 27.45 256.092 27.698 254.852 28.194C253.612 28.69 252.538 29.4133 251.628 30.364C250.76 31.3147 250.078 32.472 249.582 33.836C249.086 35.1587 248.838 36.6467 248.838 38.3C248.838 39.9533 249.086 41.462 249.582 42.826C250.078 44.1487 250.76 45.2853 251.628 46.236C252.538 47.1867 253.612 47.91 254.852 48.406C256.092 48.902 257.477 49.15 259.006 49.15C260.949 49.15 262.685 48.716 264.214 47.848C265.785 46.9387 267.211 45.678 268.492 44.066L277.73 52.312C275.581 55.0813 272.853 57.2307 269.546 58.76C266.281 60.248 262.52 60.992 258.262 60.992ZM295.347 32.72H314.691V43.26H295.347V32.72ZM296.339 48.964H318.039V60H281.955V16.6H317.233V27.636H296.339V48.964ZM339.854 60.992C336.216 60.992 332.703 60.5787 329.314 59.752C325.924 58.9253 323.134 57.8507 320.944 56.528L325.656 45.864C327.722 47.0627 330.016 48.034 332.538 48.778C335.1 49.4807 337.58 49.832 339.978 49.832C341.383 49.832 342.478 49.7493 343.264 49.584C344.09 49.3773 344.69 49.1087 345.062 48.778C345.434 48.406 345.62 47.972 345.62 47.476C345.62 46.6907 345.186 46.0707 344.318 45.616C343.45 45.1613 342.292 44.7893 340.846 44.5C339.44 44.1693 337.89 43.8387 336.196 43.508C334.501 43.136 332.786 42.6607 331.05 42.082C329.355 41.5033 327.784 40.7387 326.338 39.788C324.932 38.8373 323.796 37.5973 322.928 36.068C322.06 34.4973 321.626 32.5547 321.626 30.24C321.626 27.5533 322.37 25.1147 323.858 22.924C325.387 20.692 327.64 18.9147 330.616 17.592C333.633 16.2693 337.374 15.608 341.838 15.608C344.772 15.608 347.666 15.918 350.518 16.538C353.37 17.158 355.932 18.1087 358.206 19.39L353.804 29.992C351.654 28.9173 349.567 28.1113 347.542 27.574C345.558 27.0367 343.615 26.768 341.714 26.768C340.308 26.768 339.192 26.892 338.366 27.14C337.539 27.388 336.94 27.7187 336.568 28.132C336.237 28.5453 336.072 29 336.072 29.496C336.072 30.24 336.506 30.8393 337.374 31.294C338.242 31.7073 339.378 32.0587 340.784 32.348C342.23 32.6373 343.801 32.9473 345.496 33.278C347.232 33.6087 348.947 34.0633 350.642 34.642C352.336 35.2207 353.886 35.9853 355.292 36.936C356.738 37.8867 357.896 39.1267 358.764 40.656C359.632 42.1853 360.066 44.0867 360.066 46.36C360.066 49.0053 359.301 51.444 357.772 53.676C356.284 55.8667 354.052 57.644 351.076 59.008C348.1 60.3307 344.359 60.992 339.854 60.992Z" fill="#2600AF"/>
<path d="M27 60.2009L7.4 60.2009L7.4 54.7689L20.196 46.9289L20.196 49.7849L7.4 42.1689L7.4 36.7369L27 36.6809L27 42.7009L16.472 42.7569L16.472 41.8049L25.236 47.0129L25.236 49.9249L16.472 55.3569L16.472 54.1809L27 54.1809L27 60.2009ZM27 28.446L18.404 28.446L22.352 26.934L7.4 35.838L7.4 28.866L17.62 22.846L17.62 26.906L7.4 20.83L7.4 14.446L22.352 23.294L18.404 21.838L27 21.838L27 28.446Z" fill="black"/>
<path d="M29.5 36H37L27 30H20L29.5 36Z" fill="#260391"/>
<path d="M26.6176 20H20L28.8235 14H35L26.6176 20Z" fill="#260391"/>
</svg>
